# xmcd CD database file
#
# Track frame offsets:
#	150
#	13810
#	27462
#	42060
#	56147
#	70042
#	82782
#	96827
#	109890
#	124755
#	135912
#	149570
#	160477
#	172035
#	187282
#	201972
#	215592
#	227315
#	241420
#	253340
#	264267
#	277362
#	291310
#	305075
#
# Disc length: 4242 seconds
#
# Revision: 0
# Processed by: cddbd v1.4PL0 Copyright (c) Steve Scherf et al.
# Submitted via: CDex 1.51
#
DISCID=75109018
DTITLE=Nat King Cole Trio - Route 66: 48 Classic Tracks - Disk 2
DYEAR=1999
DGENRE=Jazz
TTITLE0=Route 66
TTITLE1=Baby, Baby All the Time
TTITLE2=Moonlight in Vermont
TTITLE3=But She's My Buddy's Chick
TTITLE4=You Call It Madness (But I Call It Love)
TTITLE5=I'll Never Be the Same
TTITLE6=Best Man
TTITLE7=(I Love You) For Sentimental Reasons
TTITLE8=Rex Rhumba
TTITLE9=You're the Cream in My Coffee
TTITLE10=What Is This Thing Called Love?
TTITLE11=This Is My Night to Dream
TTITLE12=Makin' Whoopee
TTITLE13=Laugh! Cool Clown
TTITLE14=I'll String Along With You
TTITLE15=Lillette
TTITLE16=Too Marvelous for Words
TTITLE17=I Can't See for Looking
TTITLE18=Bop-Kick
TTITLE19=Little Girl
TTITLE20=I Thought You Ought to Know
TTITLE21=If I Had You
TTITLE22=For All We Know
TTITLE23=Nature Boy
EXTD=YEAR: 1999
EXTT0=
EXTT1=
EXTT2=
EXTT3=
EXTT4=
EXTT5=
EXTT6=
EXTT7=
EXTT8=
EXTT9=
EXTT10=
EXTT11=
EXTT12=
EXTT13=
EXTT14=
EXTT15=
EXTT16=
EXTT17=
EXTT18=
EXTT19=
EXTT20=
EXTT21=
EXTT22=
EXTT23=
PLAYORDER=
